<svg width="26" height="26" viewBox="0 0 26 26" fill="none" xmlns="http://www.w3.org/2000/svg">
<path d="M19.1643 5.66588C18.9297 5.66269 18.6994 5.72913 18.5026 5.8568C18.3058 5.98447 18.1512 6.16764 18.0585 6.38315C17.9658 6.59865 17.939 6.83681 17.9817 7.06752C18.0243 7.29822 18.1343 7.51111 18.2979 7.67926C18.4616 7.84741 18.6713 7.96327 18.9008 8.01219C19.1302 8.06112 19.3691 8.0409 19.587 7.95411C19.805 7.86732 19.9923 7.71784 20.1253 7.52458C20.2583 7.33133 20.3311 7.10297 20.3343 6.86838V6.83588C20.3315 6.52645 20.2073 6.2305 19.9885 6.01169C19.7697 5.79288 19.4737 5.66871 19.1643 5.66588Z" stroke="#FCFCFC" stroke-linecap="round" stroke-linejoin="round"/>
<path d="M21.9649 2.97911H4.03574C3.75314 2.98617 3.4845 3.10342 3.28716 3.30583C3.08982 3.50823 2.9794 3.77975 2.97949 4.06244V21.9916C2.97949 22.2789 3.09363 22.5545 3.29679 22.7576C3.49996 22.9608 3.77551 23.0749 4.06283 23.0749H21.992C22.2793 23.0749 22.5549 22.9608 22.758 22.7576C22.9612 22.5545 23.0753 22.2789 23.0753 21.9916V4.03536C23.0718 3.89308 23.0403 3.75289 22.9826 3.62279C22.9249 3.49269 22.8421 3.37525 22.739 3.27716C22.6359 3.17906 22.5144 3.10225 22.3816 3.05111C22.2488 2.99997 22.1072 2.97551 21.9649 2.97911V2.97911Z" stroke="#FCFCFC" stroke-linecap="round" stroke-linejoin="round"/>
<path d="M12.9997 8.51489C12.1126 8.51489 11.2455 8.77793 10.5079 9.27075C9.77036 9.76357 9.19551 10.464 8.85605 11.2836C8.51659 12.1031 8.42777 13.0049 8.60083 13.8749C8.77388 14.7449 9.20104 15.544 9.82828 16.1713C10.4555 16.7985 11.2547 17.2257 12.1247 17.3987C12.9947 17.5718 13.8965 17.483 14.716 17.1435C15.5355 16.804 16.236 16.2292 16.7288 15.4916C17.2216 14.7541 17.4847 13.8869 17.4847 12.9999V12.9999C17.4847 11.8104 17.0121 10.6696 16.171 9.82852C15.3299 8.98742 14.1891 8.51489 12.9997 8.51489V8.51489Z" stroke="#FCFCFC" stroke-linecap="round" stroke-linejoin="round"/>
</svg>
