<svg width="26" height="26" viewBox="0 0 26 26" fill="none" xmlns="http://www.w3.org/2000/svg">
<path d="M13.0001 23.0208V10.0588C13.0001 9.69766 13.0713 9.3401 13.2096 9.00656C13.348 8.67301 13.5507 8.37003 13.8063 8.11495C14.0619 7.85986 14.3653 7.65769 14.6991 7.51999C15.0329 7.3823 15.3906 7.31179 15.7517 7.31251C17.1005 7.31251 17.9455 7.71334 18.5251 8.46084M10.6709 12.6154H16.1688" stroke="#FCFCFC" stroke-linecap="round" stroke-linejoin="round"/>
<path d="M4.05208 2.97925C3.76477 2.97925 3.48922 3.09338 3.28605 3.29655C3.08289 3.49971 2.96875 3.77526 2.96875 4.06258V4.06258V21.9376C2.96875 22.2249 3.08289 22.5004 3.28605 22.7036C3.48922 22.9068 3.76477 23.0209 4.05208 23.0209H21.9488C22.2361 23.0209 22.5116 22.9068 22.7148 22.7036C22.9179 22.5004 23.0321 22.2249 23.0321 21.9376V4.06258C23.0321 3.77526 22.9179 3.49971 22.7148 3.29655C22.5116 3.09338 22.2361 2.97925 21.9488 2.97925H4.05208Z" stroke="#FCFCFC" stroke-linecap="round" stroke-linejoin="round"/>
</svg>
