<svg width="28" height="28" viewBox="0 0 28 28" fill="none" xmlns="http://www.w3.org/2000/svg">
<path d="M22.598 9.65418V10.2375C22.598 16.1117 18.1413 22.8434 9.98634 22.8434C7.57889 22.8486 5.22257 22.149 3.20801 20.8309C3.55788 20.8784 3.91079 20.8998 4.26384 20.895C6.25943 20.9005 8.1989 20.2348 9.77051 19.005C8.8434 18.9914 7.94419 18.6858 7.20067 18.1318C6.45715 17.5779 5.90715 16.8036 5.62884 15.9192C5.905 15.9777 6.18655 16.0071 6.46884 16.0067C6.86304 16.0068 7.25545 15.9538 7.63551 15.8492C6.63135 15.649 5.72796 15.1061 5.07992 14.3133C4.43189 13.5206 4.07948 12.5273 4.08301 11.5033V11.445C4.69738 11.7882 5.38616 11.9764 6.08967 11.9933C5.15319 11.3771 4.48736 10.4265 4.22824 9.3358C3.96912 8.2451 4.13626 7.09662 4.69551 6.12502C5.80983 7.49555 7.2001 8.61624 8.77595 9.41421C10.3518 10.2122 12.078 10.6696 13.8422 10.7567C13.7548 10.4256 13.7136 10.084 13.7197 9.74168C13.6868 8.83688 13.9336 7.94394 14.4265 7.18444C14.9194 6.42495 15.6343 5.83581 16.4741 5.49724C17.3138 5.15868 18.2374 5.08714 19.1193 5.29237C20.0011 5.49761 20.7982 5.96963 21.4022 6.64418C22.3949 6.44385 23.3471 6.07911 24.2197 5.56502C23.8888 6.60998 23.1849 7.49661 22.2422 8.05585C23.1228 7.93451 23.9813 7.68697 24.7913 7.32085C24.2043 8.22247 23.4616 9.01254 22.598 9.65418V9.65418Z" stroke="#FCFCFC" stroke-linecap="round" stroke-linejoin="round"/>
</svg>
